<svg width="1588" height="465" viewBox="0 0 1588 465" fill="none" xmlns="http://www.w3.org/2000/svg">
<path d="M544.375 185.875H576.875V144.875H601.5V185.875H645.25V210.5H601.5V294.375H645.25V319H601.5C598.167 319 595 318.375 592 317.125C589 315.792 586.375 314.042 584.125 311.875C581.875 309.625 580.083 307 578.75 304C577.5 301 576.875 297.792 576.875 294.375V210.5H544.375V185.875ZM686.375 260.875C686.375 257.458 687 254.292 688.25 251.375C689.583 248.375 691.333 245.75 693.5 243.5C695.75 241.25 698.375 239.5 701.375 238.25C704.375 236.917 707.542 236.25 710.875 236.25H774.375V210.5H694V185.875H774.375C777.792 185.875 781 186.542 784 187.875C787 189.125 789.583 190.875 791.75 193.125C794 195.292 795.75 197.875 797 200.875C798.333 203.875 799 207.083 799 210.5V319H774.375V296.5C774.125 299.583 773.292 302.5 771.875 305.25C770.458 308 768.625 310.417 766.375 312.5C764.208 314.5 761.708 316.083 758.875 317.25C756.042 318.417 753.042 319 749.875 319H710.875C707.542 319 704.375 318.375 701.375 317.125C698.375 315.792 695.75 314.042 693.5 311.875C691.333 309.625 689.583 307 688.25 304C687 301 686.375 297.792 686.375 294.375V260.875ZM710.875 294.375H774.375V260.875H710.875V294.375ZM864.625 210.5V294.375H928.125V271.875H952.75V294.375C952.75 297.792 952.083 301 950.75 304C949.5 307 947.75 309.625 945.5 311.875C943.333 314.042 940.75 315.792 937.75 317.125C934.75 318.375 931.542 319 928.125 319H864.625C861.292 319 858.125 318.375 855.125 317.125C852.125 315.792 849.5 314.042 847.25 311.875C845.083 309.625 843.333 307 842 304C840.75 301 840.125 297.792 840.125 294.375V210.5C840.125 207.083 840.75 203.875 842 200.875C843.333 197.875 845.083 195.292 847.25 193.125C849.5 190.875 852.125 189.125 855.125 187.875C858.125 186.542 861.292 185.875 864.625 185.875H928.125C931.542 185.875 934.75 186.542 937.75 187.875C940.75 189.125 943.333 190.875 945.5 193.125C947.75 195.292 949.5 197.875 950.75 200.875C952.083 203.875 952.75 207.083 952.75 210.5V233H928.125V210.5H864.625ZM1111.62 319H1087V210.5H1018.38V319H993.875V134.625H1018.38V209.375C1018.54 206.125 1019.29 203.083 1020.62 200.25C1021.96 197.333 1023.71 194.833 1025.88 192.75C1028.12 190.583 1030.71 188.917 1033.62 187.75C1036.54 186.5 1039.67 185.875 1043 185.875H1087C1090.42 185.875 1093.62 186.542 1096.62 187.875C1099.62 189.125 1102.21 190.875 1104.38 193.125C1106.62 195.292 1108.38 197.875 1109.62 200.875C1110.96 203.875 1111.62 207.083 1111.62 210.5V319ZM1161.62 372.75L1189.5 307L1137.25 185.875H1163.12L1202 277.5L1240.88 185.875H1266.75L1186.12 372.75H1161.62ZM1407.5 294.375C1407.5 297.792 1406.83 301 1405.5 304C1404.25 307 1402.5 309.625 1400.25 311.875C1398.08 314.042 1395.5 315.792 1392.5 317.125C1389.58 318.375 1386.42 319 1383 319H1316.88C1313.54 319 1310.38 318.375 1307.38 317.125C1304.38 315.792 1301.75 314.042 1299.5 311.875C1297.33 309.625 1295.58 307 1294.25 304C1293 301 1292.38 297.792 1292.38 294.375V210.5C1292.38 207.083 1293 203.875 1294.25 200.875C1295.58 197.875 1297.33 195.292 1299.5 193.125C1301.75 190.875 1304.38 189.125 1307.38 187.875C1310.38 186.542 1313.54 185.875 1316.88 185.875H1383C1386.42 185.875 1389.58 186.542 1392.5 187.875C1395.5 189.125 1398.08 190.875 1400.25 193.125C1402.5 195.292 1404.25 197.875 1405.5 200.875C1406.83 203.875 1407.5 207.083 1407.5 210.5V294.375ZM1316.88 210.5V294.375H1383V210.5H1316.88ZM1566.38 319H1541.75V210.5H1473.12V319H1448.62V185.875H1473.12V209.375C1473.29 206.125 1474.04 203.083 1475.38 200.25C1476.71 197.333 1478.46 194.833 1480.62 192.75C1482.88 190.583 1485.46 188.917 1488.38 187.75C1491.29 186.5 1494.42 185.875 1497.75 185.875H1541.75C1545.17 185.875 1548.38 186.542 1551.38 187.875C1554.38 189.125 1556.96 190.875 1559.12 193.125C1561.38 195.292 1563.12 197.875 1564.38 200.875C1565.71 203.875 1566.38 207.083 1566.38 210.5V319Z" fill="white"/>
<path d="M393.222 77.7721L277.402 39.1454C277.043 39.0256 276.647 39.1191 276.379 39.3869L235.446 80.3198C234.926 80.8397 235.126 81.7242 235.819 81.9696L348.985 122.032C349.269 122.133 349.493 122.357 349.594 122.641L389.657 235.807C389.902 236.5 390.786 236.7 391.306 236.18L432.239 195.247C432.507 194.98 432.601 194.583 432.481 194.224L393.854 78.4044C393.754 78.1059 393.52 77.8716 393.222 77.7721Z" stroke="white" stroke-width="20"/>
<path d="M311.8 159.188L195.98 120.561C195.621 120.442 195.225 120.535 194.957 120.803L154.024 161.736C153.504 162.256 153.704 163.14 154.397 163.386L267.563 203.448C267.848 203.549 268.071 203.773 268.172 204.057L308.235 317.223C308.48 317.916 309.364 318.116 309.884 317.596L350.817 276.663C351.085 276.396 351.179 275.999 351.059 275.64L312.432 159.82C312.333 159.522 312.098 159.288 311.8 159.188Z" stroke="white" stroke-width="20"/>
<path d="M39.3125 425.682L151.644 313.35" stroke="white" stroke-width="20" stroke-linecap="round"/>
<path d="M35.1016 351.264L85.6509 300.714" stroke="white" stroke-width="18" stroke-linecap="round"/>
<path d="M113.734 429.895L164.284 379.345" stroke="white" stroke-width="18" stroke-linecap="round"/>
<path d="M230.386 240.604L114.566 201.977C114.207 201.858 113.811 201.951 113.543 202.219L72.6099 243.152C72.09 243.672 72.2901 244.556 72.9833 244.802L186.149 284.864C186.433 284.965 186.657 285.189 186.758 285.473L226.821 398.639C227.066 399.332 227.95 399.532 228.47 399.012L269.403 358.079C269.671 357.812 269.765 357.415 269.645 357.056L231.018 241.236C230.918 240.938 230.684 240.704 230.386 240.604Z" stroke="white" stroke-width="20"/>
</svg>
